# xmcd
#
# Track frame offsets:
#	150
#	19054
#	39103
#	61382
#	81410
#	107966
#	128776
#	144903
#	160056
#	177683
#
# Disc length: 2751 seconds
#
# Revision: 1
# Processed by: cddbd v1.5.2PL0 Copyright (c) Steve Scherf et al.
# Submitted via: audiograbber 1.83.01
#
DISCID=820abd0a
DTITLE=Aroldo "Libero" Guidotti - E' come un gioco
DYEAR=2007
DGENRE=
TTITLE0=I love you
TTITLE1=La stazione
TTITLE2=Ho bisogno
TTITLE3=Se stiamo qui
TTITLE4=E' come un gioco
TTITLE5=Angelo senza cielo
TTITLE6=Canzone per un sorriso
TTITLE7=Dov'è il sole
TTITLE8=Cosa dovrei fare
TTITLE9=Devo uscire da qui
EXTD=
EXTT0=
EXTT1=
EXTT2=
EXTT3=
EXTT4=
EXTT5=
EXTT6=
EXTT7=
EXTT8=
EXTT9=
PLAYORDER=
